<svg xmlns="http://www.w3.org/2000/svg" version="1.1" xmlns:xlink="http://www.w3.org/1999/xlink" width="512" height="512" x="0" y="0" viewBox="0 0 24 25" style="enable-background:new 0 0 512 512" xml:space="preserve" class=""><g transform="matrix(0.6699999999999989,0,0,0.6699999999999989,3.9614851284027246,4.05140998363496)"><g fill="#000" fill-rule="evenodd" clip-rule="evenodd"><path d="M10.746 18.277c0-.69.56-1.25 1.25-1.25h.01a1.25 1.25 0 0 1 0 2.5h-.01c-.69 0-1.25-.56-1.25-1.25zM16.75 18.277c0-.69.56-1.25 1.25-1.25h.009a1.25 1.25 0 0 1 0 2.5H18c-.69 0-1.25-.56-1.25-1.25zM4.75 18.277c0-.69.56-1.25 1.25-1.25h.009a1.25 1.25 0 1 1 0 2.5H6c-.69 0-1.25-.56-1.25-1.25zM10.746 12.277c0-.69.56-1.25 1.25-1.25h.01a1.25 1.25 0 0 1 0 2.5h-.01c-.69 0-1.25-.56-1.25-1.25zM10.75 6.277c0-.69.56-1.25 1.25-1.25h.009a1.25 1.25 0 0 1 0 2.5H12c-.69 0-1.25-.56-1.25-1.25zM16.75 12.277c0-.69.56-1.25 1.25-1.25h.009a1.25 1.25 0 0 1 0 2.5H18c-.69 0-1.25-.56-1.25-1.25zM16.75 6.277c0-.69.56-1.25 1.25-1.25h.009a1.25 1.25 0 0 1 0 2.5H18c-.69 0-1.25-.56-1.25-1.25zM4.75 12.277c0-.69.56-1.25 1.25-1.25h.009a1.25 1.25 0 1 1 0 2.5H6c-.69 0-1.25-.56-1.25-1.25zM4.75 6.277c0-.69.56-1.25 1.25-1.25h.009a1.25 1.25 0 1 1 0 2.5H6c-.69 0-1.25-.56-1.25-1.25z" fill="#e0ef7b" opacity="1" data-original="#000000" class=""></path></g></g></svg>